<?xml version="1.0" encoding="UTF-8" standalone="no"?>
<svg
   xmlns:dc="http://purl.org/dc/elements/1.1/"
   xmlns:cc="http://creativecommons.org/ns#"
   xmlns:rdf="http://www.w3.org/1999/02/22-rdf-syntax-ns#"
   xmlns:svg="http://www.w3.org/2000/svg"
   xmlns="http://www.w3.org/2000/svg"
   xmlns:sodipodi="http://sodipodi.sourceforge.net/DTD/sodipodi-0.dtd"
   xmlns:inkscape="http://www.inkscape.org/namespaces/inkscape"
   version="1.1"
   x="0px"
   y="0px"
   viewBox="0 0 60 85"
   xml:space="preserve"
   id="svg2"
   inkscape:version="0.48.5 r10040"
   width="100%"
   height="100%"
   sodipodi:docname="cinematicket.svg"><metadata
     id="metadata20"><rdf:RDF><cc:Work
         rdf:about=""><dc:format>image/svg+xml</dc:format><dc:type
           rdf:resource="http://purl.org/dc/dcmitype/StillImage" /></cc:Work></rdf:RDF></metadata><defs
     id="defs18" /><sodipodi:namedview
     pagecolor="#ffffff"
     bordercolor="#666666"
     borderopacity="1"
     objecttolerance="10"
     gridtolerance="10"
     guidetolerance="10"
     inkscape:pageopacity="0"
     inkscape:pageshadow="2"
     inkscape:window-width="640"
     inkscape:window-height="480"
     id="namedview16"
     showgrid="false"
     fit-margin-top="0"
     fit-margin-left="0"
     fit-margin-right="0"
     fit-margin-bottom="0"
     inkscape:zoom="1.888"
     inkscape:cx="30"
     inkscape:cy="30"
     inkscape:window-x="0"
     inkscape:window-y="0"
     inkscape:window-maximized="0"
     inkscape:current-layer="svg2" /><path
     d="m 25,60 h -5 c -1.381,0 -2.5,1.119 -2.5,2.5 0,1.381 1.119,2.5 2.5,2.5 h 5 c 1.381,0 2.5,-1.119 2.5,-2.5 C 27.5,61.119 26.381,60 25,60 z"
     id="path4"
     inkscape:connector-curvature="0" /><path
     d="m 40,60 h -5 c -1.381,0 -2.5,1.119 -2.5,2.5 0,1.381 1.119,2.5 2.5,2.5 h 5 c 1.381,0 2.5,-1.119 2.5,-2.5 C 42.5,61.119 41.381,60 40,60 z"
     id="path6"
     inkscape:connector-curvature="0" /><path
     d="m 10,85 c 1.381,0 2.5,-1.119 2.5,-2.5 0,-1.378 1.121,-2.5 2.5,-2.5 1.379,0 2.5,1.122 2.5,2.5 0,1.381 1.119,2.5 2.5,2.5 h 5 c 1.381,0 2.5,-1.119 2.5,-2.5 0,-1.378 1.121,-2.5 2.5,-2.5 1.379,0 2.5,1.122 2.5,2.5 0,1.381 1.119,2.5 2.5,2.5 h 5 c 1.381,0 2.5,-1.119 2.5,-2.5 0,-1.378 1.121,-2.5 2.5,-2.5 1.379,0 2.5,1.122 2.5,2.5 0,1.381 1.119,2.5 2.5,2.5 h 7.5 C 58.881,85 60,83.881 60,82.5 V 2.5 C 60,1.119 58.881,0 57.5,0 H 50 C 48.619,0 47.5,1.119 47.5,2.5 47.5,3.878 46.379,5 45,5 43.621,5 42.5,3.878 42.5,2.5 42.5,1.119 41.381,0 40,0 H 35 C 33.619,0 32.5,1.119 32.5,2.5 32.5,3.878 31.379,5 30,5 28.621,5 27.5,3.878 27.5,2.5 27.5,1.119 26.381,0 25,0 H 20 C 18.619,0 17.5,1.119 17.5,2.5 17.5,3.878 16.379,5 15,5 13.621,5 12.5,3.878 12.5,2.5 12.5,1.119 11.381,0 10,0 H 2.5 C 1.119,0 0,1.119 0,2.5 v 80 C 0,83.881 1.119,85 2.5,85 H 10 z M 5,65 h 5 c 1.381,0 2.5,-1.119 2.5,-2.5 C 12.5,61.119 11.381,60 10,60 H 5 V 5 h 2.929 c 1.031,2.91 3.812,5 7.071,5 3.259,0 6.04,-2.09 7.071,-5 h 0.857 c 1.031,2.91 3.812,5 7.071,5 3.259,0 6.04,-2.09 7.071,-5 h 0.857 c 1.031,2.91 3.812,5 7.071,5 3.259,0 6.04,-2.09 7.071,-5 H 55 v 55 h -5 c -1.381,0 -2.5,1.119 -2.5,2.5 0,1.381 1.119,2.5 2.5,2.5 h 5 V 80 H 52.071 C 51.04,77.09 48.259,75 45,75 c -3.259,0 -6.04,2.09 -7.071,5 h -0.857 c -1.031,-2.91 -3.812,-5 -7.071,-5 -3.259,0 -6.04,2.09 -7.071,5 h -0.857 c -1.031,-2.91 -3.812,-5 -7.071,-5 -3.259,0 -6.04,2.09 -7.071,5 H 5 V 65 z"
     id="path8"
     inkscape:connector-curvature="0" /><path
     d="m 37.5,47.5 c 1.381,0 2.5,-1.119 2.5,-2.5 v -5 l 6,4.5 c 0.441,0.331 0.969,0.5 1.5,0.5 0.382,0 0.765,-0.087 1.118,-0.264 C 49.465,44.313 50,43.447 50,42.5 v -15 C 50,26.553 49.465,25.687 48.618,25.264 47.772,24.84 46.759,24.931 46,25.5 L 40,30 v -5 c 0,-1.381 -1.119,-2.5 -2.5,-2.5 h -25 C 11.119,22.5 10,23.619 10,25 v 20 c 0,1.381 1.119,2.5 2.5,2.5 h 25 z m 7.5,-15 v 5 L 41.667,35 45,32.5 z m -30,-5 h 20 v 15 H 15 v -15 z"
     id="path10"
     inkscape:connector-curvature="0" /></svg>