<?xml version="1.0" encoding="UTF-8" standalone="no"?>
<svg
   xmlns:dc="http://purl.org/dc/elements/1.1/"
   xmlns:cc="http://creativecommons.org/ns#"
   xmlns:rdf="http://www.w3.org/1999/02/22-rdf-syntax-ns#"
   xmlns:svg="http://www.w3.org/2000/svg"
   xmlns="http://www.w3.org/2000/svg"
   xmlns:sodipodi="http://sodipodi.sourceforge.net/DTD/sodipodi-0.dtd"
   xmlns:inkscape="http://www.inkscape.org/namespaces/inkscape"
   version="1.1"
   x="0px"
   y="0px"
   viewBox="0 0 89.999961 63.965543"
   enable-background="new 0 0 100 100"
   xml:space="preserve"
   id="svg2"
   inkscape:version="0.48.5 r10040"
   width="100%"
   height="100%"
   sodipodi:docname="croissant.svg"><metadata
     id="metadata30"><rdf:RDF><cc:Work
         rdf:about=""><dc:format>image/svg+xml</dc:format><dc:type
           rdf:resource="http://purl.org/dc/dcmitype/StillImage" /></cc:Work></rdf:RDF></metadata><defs
     id="defs28" /><sodipodi:namedview
     pagecolor="#ffffff"
     bordercolor="#666666"
     borderopacity="1"
     objecttolerance="10"
     gridtolerance="10"
     guidetolerance="10"
     inkscape:pageopacity="0"
     inkscape:pageshadow="2"
     inkscape:window-width="640"
     inkscape:window-height="480"
     id="namedview26"
     showgrid="false"
     fit-margin-top="0"
     fit-margin-left="0"
     fit-margin-right="0"
     fit-margin-bottom="0"
     inkscape:zoom="1.888"
     inkscape:cx="44.999993"
     inkscape:cy="19.482951"
     inkscape:window-x="0"
     inkscape:window-y="0"
     inkscape:window-maximized="0"
     inkscape:current-layer="svg2" /><g
     id="g4"
     transform="translate(-5.0000075,-18.017407)"><path
       d="M 36.639,54.677 C 35.847,49.526 35.253,44.34 34.771,39.151 34.436,35.538 33.304,30.598 34.385,26.92 c -4.563,-1.494 -11.381,1.753 -14.873,4.286 -2.016,1.462 -4.649,3.543 -4.644,6.252 0.005,2.781 1.916,5.939 3.047,8.359 2.2,4.706 4.759,9.241 7.636,13.566 0.241,0.363 0.481,0.727 0.727,1.087 1.525,2.232 3.291,5.98 6.369,5.826 2.109,-0.105 4.325,-1.213 5.929,-2.634 -1.154,-2.303 -1.452,-5.357 -1.789,-7.929 -0.048,-0.362 -0.096,-0.717 -0.148,-1.056 z"
       id="path6"
       inkscape:connector-curvature="0"
       style="fill:none" /><path
       d="m 63.672,55.511 c 0.547,-1.901 1.021,-3.825 1.456,-5.742 1.431,-6.311 3,-12.97 3.261,-19.442 0.04,-0.985 0.115,-2.174 0.061,-3.312 -0.108,-0.236 -0.138,-0.507 -0.06,-0.759 -0.059,-0.519 -0.152,-1.016 -0.306,-1.458 -0.733,-2.104 -2.382,-2.682 -4.214,-3.323 -3.221,-1.128 -6.651,-1.48 -10.048,-1.404 -5.249,0.117 -14.405,0.954 -17.156,6.437 -1.163,2.319 -0.445,5.728 -0.256,8.226 0.159,2.087 0.345,4.172 0.551,6.255 0.462,4.661 1.006,9.321 1.743,13.947 0.021,0.129 0.039,0.271 0.058,0.406 0.361,2.491 0.571,5.754 1.873,7.907 2.766,2.862 10.007,2.153 13.546,1.794 3.81,-0.387 6.704,-1.593 8.166,-5.467 0.502,-1.332 0.93,-2.693 1.325,-4.065 z M 40.913,32.016 c 0.809,-1.397 1.747,-2.705 2.795,-3.933 0.843,-0.988 2.26,0.443 1.424,1.424 -0.937,1.099 -1.757,2.276 -2.48,3.525 -0.651,1.122 -2.39,0.107 -1.739,-1.016 z m 5.875,1.44 c -0.486,0.382 -0.973,0.764 -1.459,1.146 -0.429,0.337 -1.001,0.423 -1.424,0 -0.352,-0.352 -0.428,-1.088 0,-1.424 0.486,-0.382 0.973,-0.764 1.459,-1.146 0.429,-0.337 1.001,-0.423 1.424,0 0.352,0.352 0.428,1.088 0,1.424 z"
       id="path8"
       inkscape:connector-curvature="0"
       style="fill:none" /><path
       d="m 14.701,43.529 c -0.188,-0.439 -0.384,-0.886 -0.577,-1.339 -2.747,2.828 -4.391,6.709 -5.75,10.366 -1.888,5.082 -1.753,9.946 -0.142,15.083 0.707,2.256 1.598,6.26 3.597,7.806 0.636,0.492 1.233,0.706 1.792,0.719 2.527,0.06 4.279,-4.031 5.369,-5.57 1.973,-2.785 4.38,-4.796 7.368,-6.361 C 25.374,62.972 24.433,61.662 23.533,60.312 20.017,55.041 17.12,49.194 14.701,43.529 z"
       id="path10"
       inkscape:connector-curvature="0"
       style="fill:none" /><path
       d="m 83.431,50.477 c 1.467,-2.496 3.248,-5.311 3.963,-8.119 0.883,-3.467 -0.208,-6.118 -2.712,-8.515 -1.879,-1.8 -4.282,-2.904 -6.576,-4.063 -2.006,-1.013 -5.313,-3.482 -7.71,-2.605 0.015,0.461 0.022,0.912 0.028,1.329 0.098,6.444 -1.513,13.034 -2.815,19.305 -0.57,2.743 -1.214,5.474 -1.995,8.165 -0.167,0.574 -0.331,1.149 -0.512,1.719 -0.692,2.184 -1.388,4.75 -2.964,6.498 1.181,1.227 3.102,1.783 4.642,2.487 1.9,0.868 3.903,1.612 5.717,-0.193 0.852,-0.848 1.535,-2.159 2.245,-3.139 0.69,-0.952 1.379,-1.907 2.063,-2.864 2.328,-3.256 4.598,-6.554 6.626,-10.005 z"
       id="path12"
       inkscape:connector-curvature="0"
       style="fill:none" /><path
       d="m 87.878,46.549 c -0.502,1.003 -1.04,1.971 -1.542,2.89 -2.1,3.844 -4.549,7.484 -7.076,11.058 -0.272,0.385 -0.547,0.803 -0.825,1.238 -0.911,1.427 -1.862,3.056 -2.92,4.484 2.289,1.372 4.402,2.794 5.309,5.485 0.52,1.543 0.522,3.152 0.69,4.753 0.124,1.185 0.122,2.775 1.377,3.047 0.477,0.103 1.13,0.022 2.048,-0.353 1.058,-0.432 2.115,-2.217 2.742,-3.049 3.328,-4.42 5.041,-9.552 5.269,-15.074 0.187,-4.527 -1.249,-11.448 -5.072,-14.479 z"
       id="path14"
       inkscape:connector-curvature="0"
       style="fill:none" /><path
       d="m 88.732,44.688 c 0.719,-1.744 1.206,-3.56 1.105,-5.379 C 89.672,36.329 87.566,33.63 85.375,31.768 82.793,29.575 79.47,28.17 76.455,26.68 74.506,25.717 72.312,24.6 70.218,25.101 70.049,24.027 69.731,22.996 69.104,22.2 67.778,20.514 65.273,19.764 63.302,19.181 57.997,17.611 52.16,17.786 46.764,18.782 c -4.102,0.758 -9.319,2.461 -11.594,6.31 -5.327,-1.731 -12.485,1.369 -16.675,4.376 -2.048,1.47 -4.41,3.349 -5.296,5.802 -0.591,1.637 -0.368,3.27 0.136,4.853 -0.001,0.001 -0.001,0.001 -0.002,0.001 -3.586,3.261 -5.766,8.278 -7.218,12.841 -2.078,6.534 -1.05,12.455 1.425,18.749 1.404,3.569 3.952,8.26 8.462,5.782 2.18,-1.198 3.119,-3.554 4.472,-5.51 1.895,-2.74 4.224,-4.657 7.173,-6.158 0.053,0.063 0.105,0.129 0.158,0.192 3.262,3.842 8.644,2.215 12.042,-0.784 2.416,1.827 6.471,1.896 9.224,1.979 3.386,0.102 8.277,0.188 11.481,-1.74 1.448,1.607 3.633,2.232 5.66,3.142 2.119,0.952 4.81,1.731 6.867,0.19 0.392,-0.294 0.767,-0.641 1.13,-1.021 2.617,1.578 4.626,3.038 5.102,6.392 0.274,1.931 -0.004,4.172 1.042,5.902 2.909,4.814 7.426,-0.709 9.354,-3.357 3.675,-5.044 5.496,-11.328 5.275,-17.574 -0.17,-4.81 -2.132,-11.468 -6.25,-14.461 z M 18.991,70.595 c -1.09,1.539 -2.842,5.629 -5.369,5.57 C 13.063,76.152 12.466,75.938 11.83,75.446 9.831,73.899 8.94,69.895 8.233,67.64 6.622,62.502 6.487,57.638 8.375,52.557 c 1.359,-3.657 3.003,-7.538 5.75,-10.366 0.193,0.453 0.389,0.9 0.577,1.339 2.419,5.665 5.316,11.512 8.832,16.784 0.9,1.35 1.841,2.66 2.825,3.921 -2.988,1.565 -5.395,3.575 -7.368,6.36 z m 13.656,-4.298 c -3.077,0.154 -4.844,-3.595 -6.369,-5.826 -0.246,-0.36 -0.485,-0.724 -0.727,-1.087 -2.877,-4.325 -5.437,-8.86 -7.636,-13.566 -1.131,-2.42 -3.042,-5.578 -3.047,-8.359 -0.005,-2.709 2.628,-4.79 4.644,-6.252 3.492,-2.533 10.31,-5.78 14.873,-4.286 -1.081,3.679 0.051,8.619 0.386,12.231 0.482,5.189 1.075,10.374 1.868,15.526 0.052,0.339 0.1,0.694 0.147,1.056 0.337,2.572 0.636,5.627 1.789,7.929 -1.602,1.421 -3.819,2.528 -5.928,2.634 z M 54.181,65.04 c -3.539,0.359 -10.78,1.069 -13.546,-1.794 -1.302,-2.153 -1.511,-5.416 -1.873,-7.907 -0.019,-0.134 -0.037,-0.276 -0.058,-0.406 -0.737,-4.627 -1.281,-9.286 -1.743,-13.947 -0.206,-2.083 -0.393,-4.168 -0.551,-6.255 -0.19,-2.498 -0.907,-5.907 0.256,-8.226 2.75,-5.483 11.906,-6.32 17.156,-6.437 3.396,-0.076 6.827,0.277 10.048,1.404 1.832,0.642 3.482,1.22 4.214,3.323 0.154,0.442 0.247,0.939 0.306,1.458 -0.078,0.253 -0.048,0.524 0.06,0.759 0.055,1.138 -0.021,2.327 -0.061,3.312 -0.261,6.473 -1.829,13.132 -3.261,19.442 -0.435,1.918 -0.909,3.842 -1.456,5.742 -0.395,1.372 -0.823,2.733 -1.325,4.063 -1.462,3.876 -4.356,5.082 -8.166,5.469 z m 18.317,1.444 c -1.814,1.805 -3.818,1.061 -5.717,0.193 -1.54,-0.704 -3.461,-1.26 -4.642,-2.487 1.576,-1.748 2.272,-4.314 2.964,-6.498 0.181,-0.57 0.345,-1.145 0.512,-1.719 0.781,-2.691 1.425,-5.422 1.995,-8.165 1.303,-6.272 2.913,-12.861 2.815,-19.305 -0.006,-0.417 -0.013,-0.868 -0.028,-1.329 2.397,-0.877 5.704,1.593 7.71,2.605 2.294,1.158 4.697,2.263 6.576,4.063 2.504,2.398 3.594,5.049 2.712,8.515 -0.715,2.808 -2.496,5.623 -3.963,8.119 -2.028,3.451 -4.298,6.75 -6.626,10.005 -0.684,0.957 -1.373,1.912 -2.063,2.864 -0.71,0.98 -1.393,2.291 -2.245,3.139 z m 15.183,9.617 c -0.627,0.832 -1.683,2.617 -2.742,3.049 -0.919,0.375 -1.571,0.456 -2.048,0.353 -1.255,-0.271 -1.253,-1.861 -1.377,-3.047 -0.168,-1.601 -0.169,-3.21 -0.69,-4.753 -0.907,-2.691 -3.02,-4.114 -5.309,-5.485 1.057,-1.429 2.008,-3.057 2.92,-4.484 0.278,-0.435 0.552,-0.853 0.825,-1.238 2.527,-3.573 4.976,-7.214 7.076,-11.058 0.502,-0.919 1.041,-1.887 1.542,-2.89 3.824,3.031 5.26,9.952 5.072,14.479 -0.229,5.522 -1.941,10.654 -5.269,15.074 z"
       id="path16"
       inkscape:connector-curvature="0" /><path
       d="m 43.708,28.083 c -1.048,1.228 -1.986,2.536 -2.795,3.933 -0.651,1.123 1.089,2.138 1.739,1.016 0.724,-1.249 1.543,-2.427 2.48,-3.525 0.836,-0.981 -0.582,-2.412 -1.424,-1.424 z"
       id="path18"
       inkscape:connector-curvature="0" /><path
       d="m 45.364,32.032 c -0.486,0.382 -0.973,0.764 -1.459,1.146 -0.428,0.336 -0.352,1.072 0,1.424 0.423,0.423 0.995,0.337 1.424,0 0.486,-0.382 0.973,-0.764 1.459,-1.146 0.428,-0.336 0.352,-1.072 0,-1.424 -0.422,-0.422 -0.994,-0.337 -1.424,0 z"
       id="path20"
       inkscape:connector-curvature="0" /></g></svg>