<?xml version="1.0" encoding="UTF-8" standalone="no"?>
<svg
   xmlns:dc="http://purl.org/dc/elements/1.1/"
   xmlns:cc="http://creativecommons.org/ns#"
   xmlns:rdf="http://www.w3.org/1999/02/22-rdf-syntax-ns#"
   xmlns:svg="http://www.w3.org/2000/svg"
   xmlns="http://www.w3.org/2000/svg"
   xmlns:sodipodi="http://sodipodi.sourceforge.net/DTD/sodipodi-0.dtd"
   xmlns:inkscape="http://www.inkscape.org/namespaces/inkscape"
   version="1.1"
   x="0px"
   y="0px"
   viewBox="0 0 88.136257 87.863036"
   xml:space="preserve"
   id="svg2"
   inkscape:version="0.48.5 r10040"
   width="100%"
   height="100%"
   sodipodi:docname="piggybank.svg"><metadata
     id="metadata32"><rdf:RDF><cc:Work
         rdf:about=""><dc:format>image/svg+xml</dc:format><dc:type
           rdf:resource="http://purl.org/dc/dcmitype/StillImage" /></cc:Work></rdf:RDF></metadata><defs
     id="defs30" /><sodipodi:namedview
     pagecolor="#ffffff"
     bordercolor="#666666"
     borderopacity="1"
     objecttolerance="10"
     gridtolerance="10"
     guidetolerance="10"
     inkscape:pageopacity="0"
     inkscape:pageshadow="2"
     inkscape:window-width="640"
     inkscape:window-height="480"
     id="namedview28"
     showgrid="false"
     fit-margin-top="0"
     fit-margin-left="0"
     fit-margin-right="0"
     fit-margin-bottom="0"
     inkscape:zoom="1.888"
     inkscape:cx="43.1"
     inkscape:cy="32"
     inkscape:window-x="0"
     inkscape:window-y="0"
     inkscape:window-maximized="0"
     inkscape:current-layer="svg2" /><style
     type="text/css"
     id="style4">
	.st0{fill:#010101;}
</style><g
     id="g6"
     transform="translate(-6.9,-6.6369645)"><path
       class="st0"
       d="m 94.56,44.58 c -0.77,-1.46 -2.16,-1.85 -2.31,-1.9 -0.54,-0.14 -1.08,0.18 -1.22,0.72 -0.1,0.38 0.04,0.75 0.31,0.99 0.11,0.1 0.25,0.19 0.41,0.23 0.01,0 0.69,0.21 1.05,0.89 0.36,0.67 0.31,1.67 -0.12,2.88 -0.21,0.58 -0.49,1.03 -0.8,1.38 -0.08,-1.52 -0.58,-2.99 -1.67,-3.64 -0.09,-0.05 -0.19,-0.09 -0.29,-0.14 -1.26,-0.6 -2.78,-0.41 -3.89,0.53 -1.18,1 -1.55,2.53 -0.98,4.01 0.08,0.21 0.19,0.4 0.31,0.59 0.74,1.14 2.19,1.87 3.83,1.87 0.02,0 0.04,0 0.06,0 -0.29,0.52 -0.65,0.87 -1.04,0.97 -1.12,0.29 -2.27,0.05 -3.14,-0.28 C 84.9,53.14 84.71,52.61 84.5,52.08 79.88,40.23 66.35,31.63 50.42,31.63 c -4.96,0 -9.77,0.86 -14.19,2.44 l -8.56,-8.56 c -0.29,-0.29 -0.72,-0.37 -1.09,-0.22 -0.37,0.15 -0.62,0.52 -0.62,0.92 V 39.6 c -3.07,2.35 -5.66,5.16 -7.59,8.33 H 12.8 c -3.25,0 -5.9,2.65 -5.9,5.9 v 12.1 c 0,3.25 2.65,5.9 5.9,5.9 h 1.6 c 0.03,0 0.06,0.02 0.1,0.02 h 2.63 c 1.72,3.57 4.24,6.78 7.51,9.57 v 7.18 c 0,3.25 2.65,5.9 5.9,5.9 h 7.52 c 2.76,0 5.13,-1.97 5.73,-4.58 4.38,0.68 8.86,0.68 13.25,0 0.61,2.61 2.98,4.58 5.73,4.58 h 7.52 c 3.25,0 5.9,-2.65 5.9,-5.9 v -7.18 c 6.46,-5.5 10.01,-12.73 10.01,-20.39 0,-1.74 -0.2,-3.45 -0.55,-5.11 0.48,0.1 0.98,0.17 1.51,0.17 0.5,0 1.02,-0.06 1.55,-0.19 1.36,-0.35 2.41,-1.62 2.89,-3.45 1.21,-0.57 2.33,-1.64 2.96,-3.37 0.63,-1.79 0.64,-3.3 0,-4.5 z m -7.25,3.47 c 0.28,-0.24 0.68,-0.41 1.1,-0.41 0.01,0 0.02,0 0.03,0 0.25,0 0.5,0.06 0.74,0.21 0.47,0.28 0.83,1.55 0.67,3.07 -0.27,0.05 -0.49,0.06 -0.63,0.07 -1.08,0 -2.04,-0.47 -2.31,-1.17 -0.05,-0.12 -0.08,-0.23 -0.1,-0.33 -0.15,-0.78 0.29,-1.26 0.5,-1.44 z m -3.12,12.97 c 0,7.2 -3.43,14 -9.65,19.15 -0.23,0.19 -0.36,0.47 -0.36,0.77 v 7.64 c 0,2.15 -1.75,3.9 -3.9,3.9 h -7.52 c -2.07,0 -3.81,-1.69 -3.88,-3.77 -0.01,-0.29 -0.15,-0.56 -0.37,-0.74 -0.18,-0.15 -0.4,-0.22 -0.63,-0.22 -0.06,0 -0.12,0 -0.18,0.02 -4.81,0.86 -9.78,0.86 -14.6,0 -0.28,-0.05 -0.58,0.02 -0.8,0.21 -0.22,0.19 -0.36,0.45 -0.37,0.74 -0.07,2.08 -1.81,3.77 -3.88,3.77 h -7.52 c -2.15,0 -3.9,-1.75 -3.9,-3.9 v -7.64 c 0,-0.3 -0.13,-0.58 -0.36,-0.77 -2.95,-2.44 -5.26,-5.24 -6.9,-8.33 h 1.25 c 6.29,0 7.69,-4.38 7.75,-4.56 0.16,-0.53 -0.14,-1.09 -0.67,-1.25 -0.53,-0.16 -1.09,0.14 -1.25,0.67 0,0.01 -0.1,0.29 -0.35,0.68 -0.59,0.92 -2.09,2.46 -5.49,2.46 H 17.9 17.86 l 0.01,0 c -0.04,0 -0.07,-0.02 -0.11,-0.02 H 12.8 c -2.15,0 -3.9,-1.75 -3.9,-3.9 v -12.1 c 0,-2.15 1.75,-3.9 3.9,-3.9 h 6.14 c 0.36,0 0.69,-0.19 0.87,-0.5 1.57,-2.71 3.67,-5.15 6.15,-7.25 v 0.54 c 0,0.55 0.45,1 1,1 0.55,0 1,-0.45 1,-1 V 42.24 40.6 39.35 38.17 28.62 l 6.23,6.23 0.75,0.75 0.79,0.79 1.41,1.41 0.25,0.25 c 0.39,0.39 1.02,0.39 1.41,0 0.39,-0.39 0.39,-1.02 0,-1.41 l -0.99,-0.99 c 3.95,-1.3 8.22,-2.02 12.61,-2.02 15.11,0 27.94,8.09 32.24,19.21 0.29,0.75 0.53,1.52 0.75,2.29 0.5,1.9 0.78,3.87 0.78,5.89 z"
       id="path8"
       inkscape:connector-curvature="0"
       style="fill:#010101" /><path
       class="st0"
       d="m 29.96,47.97 c -4.21,0 -5.52,3.64 -5.62,5.57 -0.03,0.55 0.39,1.02 0.94,1.05 0.02,0 0.04,0 0.06,0 0.53,0 0.97,-0.41 1,-0.95 0,-0.01 0,-0.04 0.01,-0.08 0.05,-0.55 0.47,-3.6 3.62,-3.6 3.25,0 3.37,3.03 3.38,3.38 0,0.01 0.01,0.02 0.01,0.03 0.02,0.54 0.45,0.97 0.99,0.97 0.55,0 1,-0.45 1,-1 -0.02,-1.86 -1.14,-5.37 -5.39,-5.37 z"
       id="path10"
       inkscape:connector-curvature="0"
       style="fill:#010101" /><path
       class="st0"
       d="m 11.58,52.34 c -0.55,0 -1,0.45 -1,1 v 12 c 0,0.55 0.45,1 1,1 0.55,0 1,-0.45 1,-1 v -12 c 0,-0.55 -0.44,-1 -1,-1 z"
       id="path12"
       inkscape:connector-curvature="0"
       style="fill:#010101" /><path
       class="st0"
       d="m 45.28,37.97 c 0.71,-0.15 7.1,-1.44 13.5,0.52 0.1,0.03 0.2,0.04 0.29,0.04 0.43,0 0.82,-0.28 0.96,-0.71 C 60.19,37.29 59.9,36.73 59.37,36.57 52.62,34.5 46.09,35.73 44.85,36 c -0.54,0.12 -0.88,0.65 -0.77,1.19 0.12,0.56 0.66,0.9 1.2,0.78 z"
       id="path14"
       inkscape:connector-curvature="0"
       style="fill:#010101" /><path
       class="st0"
       d="m 52.88,49.26 c -4.77,0 -8.76,4.38 -9.83,10.25 H 40.5 c -0.55,0 -1,0.45 -1,1 0,0.55 0.45,1 1,1 h 2.29 c -0.02,0.37 -0.04,0.75 -0.04,1.13 0,0.46 0.02,0.92 0.05,1.37 h -2.3 c -0.55,0 -1,0.45 -1,1 0,0.55 0.45,1 1,1 h 2.59 c 1.14,5.74 5.09,10 9.79,10 3.53,0 6.75,-2.36 8.6,-6.33 0.23,-0.5 0.02,-1.1 -0.48,-1.33 -0.12,-0.06 -0.24,-0.08 -0.36,-0.09 -0.4,-0.02 -0.79,0.19 -0.96,0.57 C 58.16,72.07 55.62,74 52.89,74 49.25,74 46.16,70.63 45.13,66 H 56 c 0.55,0 1,-0.45 1,-1 0,-0.55 -0.45,-1 -1,-1 H 44.82 c -0.04,-0.45 -0.07,-0.91 -0.07,-1.37 0,-0.38 0.01,-0.76 0.04,-1.13 H 56 c 0.55,0 1,-0.45 1,-1 0,-0.55 -0.45,-1 -1,-1 H 45.07 c 0.97,-4.76 4.1,-8.25 7.81,-8.25 3.21,0 6.13,2.67 7.43,6.8 0.13,0.41 0.49,0.67 0.89,0.69 0.12,0.01 0.24,0 0.36,-0.04 0.53,-0.17 0.82,-0.73 0.65,-1.25 -1.57,-4.97 -5.24,-8.19 -9.33,-8.19 z"
       id="path16"
       inkscape:connector-curvature="0"
       style="fill:#010101" /><path
       class="st0"
       d="m 41.39,24.65 c 0.13,0.43 0.53,0.71 0.96,0.71 0.1,0 0.19,-0.01 0.29,-0.04 0.53,-0.16 0.83,-0.72 0.67,-1.25 L 38.24,7.35 C 38.08,6.82 37.52,6.52 36.99,6.68 36.46,6.84 36.16,7.4 36.32,7.93 l 5.07,16.72 z"
       id="path18"
       inkscape:connector-curvature="0"
       style="fill:#010101" /><path
       class="st0"
       d="m 52.38,23.83 c 0.04,0 0.07,0.01 0.11,0.01 0.5,0 0.94,-0.38 0.99,-0.89 L 55,8.76 C 55.06,8.21 54.66,7.72 54.11,7.66 53.57,7.6 53.07,8 53.01,8.55 l -1.52,14.19 c -0.06,0.54 0.34,1.03 0.89,1.09 z"
       id="path20"
       inkscape:connector-curvature="0"
       style="fill:#010101" /><path
       class="st0"
       d="m 62.13,29.79 c 0.15,0.09 0.32,0.13 0.49,0.13 0.35,0 0.69,-0.18 0.87,-0.51 l 9.63,-17.23 c 0.27,-0.48 0.1,-1.09 -0.39,-1.36 -0.48,-0.27 -1.09,-0.1 -1.36,0.38 l -9.63,17.23 c -0.26,0.48 -0.09,1.09 0.39,1.36 z"
       id="path22"
       inkscape:connector-curvature="0"
       style="fill:#010101" /></g></svg>