<?xml version="1.0" encoding="UTF-8" standalone="no"?>
<svg
   xmlns:dc="http://purl.org/dc/elements/1.1/"
   xmlns:cc="http://creativecommons.org/ns#"
   xmlns:rdf="http://www.w3.org/1999/02/22-rdf-syntax-ns#"
   xmlns:svg="http://www.w3.org/2000/svg"
   xmlns="http://www.w3.org/2000/svg"
   xmlns:sodipodi="http://sodipodi.sourceforge.net/DTD/sodipodi-0.dtd"
   xmlns:inkscape="http://www.inkscape.org/namespaces/inkscape"
   version="1.1"
   x="0px"
   y="0px"
   viewBox="0 0 508.1 508"
   enable-background="new 0 0 512 512"
   xml:space="preserve"
   id="svg2"
   inkscape:version="0.48.5 r10040"
   width="100%"
   height="100%"
   sodipodi:docname="toque.svg"><metadata
     id="metadata20"><rdf:RDF><cc:Work
         rdf:about=""><dc:format>image/svg+xml</dc:format><dc:type
           rdf:resource="http://purl.org/dc/dcmitype/StillImage" /></cc:Work></rdf:RDF></metadata><defs
     id="defs18" /><sodipodi:namedview
     pagecolor="#ffffff"
     bordercolor="#666666"
     borderopacity="1"
     objecttolerance="10"
     gridtolerance="10"
     guidetolerance="10"
     inkscape:pageopacity="0"
     inkscape:pageshadow="2"
     inkscape:window-width="640"
     inkscape:window-height="480"
     id="namedview16"
     showgrid="false"
     fit-margin-top="0"
     fit-margin-left="0"
     fit-margin-right="0"
     fit-margin-bottom="0"
     inkscape:zoom="0.36875"
     inkscape:cx="254"
     inkscape:cy="190"
     inkscape:window-x="0"
     inkscape:window-y="0"
     inkscape:window-maximized="0"
     inkscape:current-layer="svg2" /><g
     id="g4"
     transform="translate(-2,-2)"><path
       d="m 378.9,51.2 c -3.9,0 -8,0.2 -12.4,0.7 C 338.5,20.1 298.4,2 256,2 213.6,2 173.5,20.1 145.5,51.8 141,51.3 137,51.1 133.1,51.1 60.8,51.2 2,110 2,182.3 2,222.4 19.9,259.4 51.2,284.5 V 510 H 460.9 V 284.4 C 492.2,259.3 510.1,222.3 510.1,182.2 510,110 451.2,51.2 378.9,51.2 z M 67.5,395.3 h 376.9 v 32.8 H 67.5 v -32.8 z m 327.8,98.3 v -16.4 h -16.4 v 16.4 h -49.2 v -16.4 h -16.4 v 16.4 h -49.2 v -16.4 h -16.4 v 16.4 h -49.2 v -16.4 h -16.4 v 16.4 h -49.2 v -16.4 h -16.4 v 16.4 h -49 v -49.2 h 376.9 v 49.2 h -49.1 z m 52.4,-219.7 -3.3,2.5 V 379 H 67.5 V 276.3 l -3.3,-2.5 C 35,251.8 18.3,218.5 18.3,182.2 18.3,118.9 69.8,67.5 133,67.5 c 4.5,0 9.2,0.3 14.7,1.1 l 4.5,0.6 2.9,-3.5 c 25,-30.1 61.8,-47.3 100.8,-47.3 39,0 75.8,17.3 100.8,47.3 l 2.9,3.5 4.5,-0.6 c 5.6,-0.7 10.3,-1.1 14.7,-1.1 63.3,0 114.7,51.5 114.7,114.7 0.1,36.3 -16.6,69.7 -45.8,91.7 z"
       id="path6"
       inkscape:connector-curvature="0" /><path
       d="M 132.7,108.5 C 92,108.5 59,141.6 59,182.2 c 0,4.5 3.7,8.2 8.2,8.2 4.5,0 8.2,-3.7 8.2,-8.2 0,-31.6 25.7,-57.4 57.4,-57.4 4.5,0 8.2,-3.7 8.2,-8.2 -0.1,-4.4 -3.7,-8.1 -8.3,-8.1 z"
       id="path8"
       inkscape:connector-curvature="0" /><path
       d="m 378.9,108.5 c -4.5,0 -8.2,3.7 -8.2,8.2 0,4.5 3.7,8.2 8.2,8.2 31.6,0 57.4,25.7 57.4,57.4 0,4.5 3.7,8.2 8.2,8.2 4.5,0 8.2,-3.7 8.2,-8.2 -0.1,-40.7 -33.1,-73.8 -73.8,-73.8 z"
       id="path10"
       inkscape:connector-curvature="0" /></g></svg>